<svg version="1.1" xmlns="http://www.w3.org/2000/svg" style="display: block;" viewBox="0 0 2048 2048" width="1024" height="1024">
<path transform="translate(0,0)" fill="rgb(254,254,254)" d="M 0 0 L 2048 0 L 2048 2048 L 0 2048 L 0 0 z"/>
<path transform="translate(0,0)" fill="rgb(97,75,53)" d="M 1084.76 112.26 C 1093.35 111.912 1102.4 113.19 1110.41 116.352 C 1117.12 119 1122.69 122.841 1127.27 128.425 C 1143.33 147.991 1158.33 168.633 1174.01 188.526 C 1217.15 242.705 1260 297.112 1302.56 351.745 L 1703.77 858.82 L 1888.04 1091.72 C 1902.82 1110.38 1960.63 1179.34 1965.67 1192.64 C 1968.45 1199.98 1967.76 1209.37 1964.42 1216.4 C 1955.82 1234.5 1926.38 1241.2 1908.69 1247.85 C 1894.19 1278.98 1886.39 1310.95 1883.11 1345.04 C 1903.99 1366.34 1983.09 1429.82 1992.1 1449.77 C 1995.6 1457.63 1995.66 1466.6 1992.25 1474.5 C 1988.32 1483.77 1980.6 1491.6 1971.7 1496.17 C 1950.93 1506.83 1928.02 1514.05 1906.32 1522.6 L 1743.51 1584.98 L 1455.38 1699.42 C 1369.6 1733.38 1283.47 1766.73 1198.14 1801.81 C 1217.28 1848.83 1265.13 1896.88 1303.28 1929.31 C 1261.84 1926.79 1226.49 1915.63 1190.51 1895.19 C 1198.04 1921.84 1210.7 1949.72 1225.95 1972.81 C 1206.38 1969.47 1190.54 1962.95 1173.05 1953.9 C 1132.41 1932.06 1107.35 1896.51 1083.72 1858.24 C 1051.57 1869.15 1020.04 1882.81 988.512 1895.43 C 970.208 1902.76 951.572 1911.61 932.077 1915.02 C 895.009 1921.51 856.757 1911.14 826.217 1889.49 C 802.466 1872.65 783.411 1849.43 766.881 1825.68 C 756.002 1810.05 746.691 1793.05 736.653 1776.85 C 712.159 1737.31 688.049 1697.42 662.93 1658.29 C 563.795 1505.36 465.844 1351.67 369.084 1197.23 C 313.52 1107.82 257.26 1018.84 200.31 930.3 L 125.742 813.971 C 112.274 792.983 97.4672 772.351 85.2529 750.627 C 69.0455 721.799 54.5361 685.892 49.1838 653.14 C 41.7893 607.892 50.1895 560.924 77.2534 523.421 C 90.0881 505.636 108.104 487.104 127.917 477.209 C 156.256 463.056 187.77 453 217.438 441.701 L 361.929 386.237 L 796.863 219.567 C 867.43 192.198 938.224 165.422 1009.24 139.24 C 1030.3 131.443 1063.73 115.7 1084.76 112.26 z"/>
<path transform="translate(0,0)" fill="rgb(254,254,254)" d="M 1083.97 174.06 C 1092.06 179.661 1123.32 223.369 1132.07 234.469 C 1179.5 293.784 1226.62 353.353 1273.41 413.174 L 1657.47 900.209 L 1826.85 1115.72 C 1845.85 1140.17 1865.94 1163.73 1884.33 1188.66 L 969.717 1549.01 L 898.974 1577.26 L 375.339 788.715 C 335.84 729.087 297.283 668.69 258.697 608.462 C 238.676 577.213 219.448 545.109 198.091 514.765 C 218.018 505.163 239.252 497.645 259.853 489.573 L 355.482 452.176 C 443.206 417.668 531.216 383.897 619.506 350.865 C 656.6 336.695 693.6 322.28 730.504 307.62 L 948.921 224.568 C 993.758 207.256 1038.78 190.419 1083.97 174.06 z"/>
<path transform="translate(0,0)" fill="rgb(97,75,53)" d="M 1467.62 820.402 C 1476.51 826.29 1511.56 877.083 1521.03 889.478 C 1579.38 965.859 1638.7 1041.75 1695.66 1119.17 C 1704.75 1117.09 1713.47 1117.01 1722.56 1119.1 C 1735.24 1122 1747.55 1129.15 1754.33 1140.55 C 1758.44 1147.47 1759.9 1155.05 1757.5 1162.84 C 1755.67 1168.78 1751.77 1173.99 1746.21 1176.9 C 1738.12 1181.15 1727.92 1179.93 1719.58 1177.07 C 1702.95 1171.38 1691.45 1160.6 1683.86 1144.87 C 1655.25 1157.84 1625.25 1168.53 1596.08 1180.23 C 1542.11 1202.2 1487.99 1223.78 1433.71 1244.96 L 1109.38 1373.61 C 1092.97 1380.1 979.043 1423.79 974.104 1427.91 C 962.776 1437.36 978.485 1465.21 966.063 1480.61 C 962.01 1485.63 955.398 1488.93 948.992 1489.31 C 940.315 1489.82 931.959 1487.83 925.397 1481.88 C 918.235 1475.39 914.136 1465.27 914.037 1455.68 C 913.883 1440.84 922.557 1429.4 932.213 1419.16 C 905.015 1383.8 878.163 1348.17 851.661 1312.28 C 839.779 1296.31 825.554 1280.33 815.599 1263.15 C 825.012 1259.44 834.636 1256.29 844.422 1253.72 C 863.944 1280.82 884.257 1307.44 904.234 1334.21 C 921.361 1357.16 938.086 1380.62 956.628 1402.45 C 973.746 1394.28 992.12 1387.93 1009.78 1380.99 C 1039.79 1369.31 1069.68 1357.33 1099.45 1345.05 C 1230.53 1292.05 1361.89 1239.75 1493.53 1188.16 L 1597.28 1147.04 C 1618.45 1138.7 1639.88 1130.82 1660.77 1121.83 C 1612.2 1058.77 1564.01 995.413 1516.19 931.774 C 1492.28 900.287 1466.87 869.387 1444.75 836.603 C 1444.77 836.491 1444.78 836.373 1444.82 836.265 C 1445.74 833.871 1445.76 833.654 1447.99 832.588 C 1449.86 833.394 1449.57 832.991 1450.68 834.293 C 1466.59 852.93 1482.72 877.455 1498.06 897.41 L 1625.65 1064.76 C 1638.67 1081.76 1656.73 1112.11 1672.9 1124.1 L 1163.32 1326.1 L 1044.7 1373.85 C 1014.9 1385.5 984.367 1396.14 955.337 1409.65 C 942.111 1397.09 931.16 1380.71 920.186 1366.17 C 893.789 1331.21 868.998 1294.53 841.356 1260.58 C 835.686 1262.24 830.173 1264.42 824.635 1266.47 C 864.35 1316.82 901.547 1369.28 941.06 1419.84 C 936.467 1423.73 932.105 1427.98 928.589 1432.89 C 922.711 1441.1 918.384 1451.18 920.366 1461.45 C 921.91 1469.46 927.089 1475.29 933.837 1479.54 C 939.612 1483.17 945.903 1484.35 952.571 1482.43 C 973.237 1476.48 961.964 1453.81 963.407 1439.33 C 963.942 1433.95 966.143 1429.12 968.584 1424.39 L 969.253 1423.12 C 977.841 1417.9 988.601 1414.67 997.958 1411.01 L 1049.81 1390.74 C 1109.12 1366.72 1168.58 1343.08 1228.19 1319.83 C 1381.08 1260.47 1532.4 1196.96 1685.51 1138.21 C 1695.93 1153.49 1706.43 1167.42 1725.22 1172.59 C 1731.09 1174.21 1737.66 1174.8 1743.1 1171.54 C 1749.37 1167.8 1751.56 1162.39 1753.49 1155.66 C 1752.79 1153.43 1752.07 1151.2 1751.22 1149.02 C 1747.38 1139.25 1737.62 1131.35 1728.09 1127.54 C 1716.38 1122.85 1704.59 1122.79 1693 1127.5 C 1685.22 1114.81 1675.48 1103.38 1666.61 1091.43 C 1646.98 1065 1627.21 1038.85 1606.96 1012.9 C 1570.85 966.161 1535.19 919.084 1499.99 871.67 C 1493.06 862.439 1467.44 832.472 1465.61 823.334 L 1467.62 820.402 z"/>
<path transform="translate(0,0)" fill="rgb(97,75,53)" d="M 1091.06 633.396 C 1104.55 632.469 1119.53 635.844 1130.78 643.456 C 1142.36 651.295 1149.85 663.232 1152.31 676.959 C 1156.18 698.494 1149.48 721.809 1136.89 739.408 C 1121.56 760.839 1099.05 771.596 1073.68 775.952 C 1056.35 776.929 1040.46 774.578 1026.68 762.861 C 1015.28 753.168 1009.99 739.262 1008.9 724.665 C 1007.23 702.263 1014.26 678.828 1029.05 661.812 C 1045.93 642.395 1066.02 635.323 1091.06 633.396 z"/>
<path transform="translate(0,0)" fill="rgb(254,254,254)" d="M 1091.82 641.369 C 1099.33 641.826 1106.25 643.034 1112.75 647.061 C 1120.94 652.141 1126.17 660.309 1128.27 669.629 C 1133.31 691.94 1125.82 720.935 1113.65 739.879 C 1103.79 755.247 1090.56 763.293 1072.84 767.154 C 1063.04 767.704 1054.19 767.121 1046.08 760.936 C 1037.7 754.534 1033.55 744.299 1032.19 734.097 C 1029.06 710.785 1037.57 680.793 1052.09 662.347 C 1062.45 649.188 1075.34 643.198 1091.82 641.369 z"/>
<path transform="translate(0,0)" fill="rgb(97,75,53)" d="M 931.607 633.354 C 945.791 632.228 960.938 634.525 972.935 642.597 C 984.668 650.491 991.538 663.15 993.982 676.843 C 997.841 698.472 991.722 722.646 978.982 740.396 C 964.068 761.175 943.754 772.014 918.98 776.095 C 903.574 778.019 886.906 775.641 874.205 766.202 C 861.995 757.127 855.245 743.663 853.387 728.775 C 850.58 706.284 857.542 682.598 871.702 664.945 C 887.047 645.813 907.622 636.112 931.607 633.354 z"/>
<path transform="translate(0,0)" fill="rgb(254,254,254)" d="M 933.661 641.307 C 941.479 640.434 950.313 642.018 956.818 646.602 C 965.016 652.379 969.119 661.859 970.921 671.427 C 975.347 694.931 968.344 722.834 954.63 742.216 C 944.624 756.356 931.602 764.53 914.527 767.486 C 906.058 768.151 897.262 766.708 890.165 761.817 C 881.854 756.09 877.772 746.824 876.174 737.124 C 872.264 713.394 879.858 684.103 893.949 664.733 C 904.068 650.823 916.687 643.89 933.661 641.307 z"/>
<path transform="translate(0,0)" fill="rgb(97,75,53)" d="M 1084.96 264.304 C 1091.18 264.354 1096.66 265.537 1101.89 269.088 C 1108.52 273.592 1112.02 281.336 1113.23 289.057 C 1115.97 306.687 1109.57 325.864 1099.07 339.921 C 1110.46 353.061 1232.56 518.049 1234.36 523.32 C 1235.03 525.297 1235 524.45 1233.99 526.413 C 1231.81 526.456 1230.93 526.615 1229.15 525.069 C 1224.05 520.635 1209.5 498.485 1204.54 491.779 L 1130.28 391.899 C 1123.37 382.529 1116.36 373.216 1109.65 363.706 C 1106.54 359.301 1103.75 354.008 1100.13 350.082 C 1097.18 346.887 1092.46 345.819 1089.28 342.877 L 1090.03 341.969 L 1091.26 340.437 C 1098.26 331.832 1102.89 322.458 1105.9 311.787 C 1108.63 302.098 1109.58 290.845 1104.27 281.826 C 1101.19 276.582 1096.18 272.766 1090.2 271.511 C 1083.92 270.196 1077.52 271.757 1072.24 275.292 C 1064.87 280.231 1060.62 288.264 1059.29 296.914 C 1056.55 314.869 1063.91 328.073 1073.93 342.014 C 1058.81 349.737 1041.8 354.799 1025.97 361.002 L 928.923 399.293 L 583.588 535.907 L 476.802 578.426 C 457.668 586.05 437.48 592.872 419.064 602.023 C 418.096 600.903 417.105 599.803 416.093 598.723 C 402.635 584.249 382.145 565.188 361.043 564.889 C 353.521 564.783 344.966 566.942 339.509 572.405 C 336.21 575.708 334.313 580.036 334.599 584.741 C 334.894 589.609 337.681 593.77 341.248 596.921 C 356.03 609.98 379.766 610.224 398.159 609.033 L 473.866 717.708 L 570.775 856.364 C 582.664 873.233 650.138 964.621 653.03 976.445 L 651.536 978.059 C 648.498 976.967 646.588 974.524 644.657 972.047 C 622.769 943.972 603.071 913.428 582.542 884.3 L 473.784 729.095 C 447.563 691.349 421.841 653.075 394.468 616.157 C 376.427 616.936 355.305 614.697 340.216 603.834 C 334.515 599.729 329.843 594.057 328.889 586.908 C 328.086 580.886 330.161 574.961 333.838 570.223 C 339.27 563.226 347.819 559.318 356.503 558.418 C 383.123 555.66 401.94 578.564 420.422 593.553 L 421.132 594.122 C 526.77 550.908 633.357 509.982 739.419 467.828 C 847.247 424.42 955.415 381.863 1063.91 340.162 C 1059.46 331.729 1055.46 323.932 1053.77 314.441 C 1051.59 302.259 1053.29 288.432 1060.75 278.26 C 1066.74 270.092 1075.16 265.921 1084.96 264.304 z"/>
<path transform="translate(0,0)" fill="rgb(97,75,53)" d="M 776.608 633.212 C 790.499 632.332 804.774 632.355 817.875 637.663 C 826.809 641.283 835.426 647.693 839.057 656.919 C 841.294 662.602 841.372 668.839 838.88 674.448 C 833.23 687.167 820.107 692.395 807.993 696.946 C 815.102 698.817 821.316 700.919 827.024 705.723 C 833.023 710.772 836.953 717.671 837.272 725.602 C 837.695 736.134 832.813 746.559 825.506 753.955 C 810.32 769.328 789.515 772.994 768.84 773.112 C 757.241 773.252 745.682 774.441 734.131 775.429 C 738.586 763.276 741.786 750.438 745.414 738.009 C 754.481 706.945 762.973 675.334 769.787 643.701 C 763.369 645.305 757.447 647.048 751.781 650.603 C 746.294 654.046 739.856 663.761 734.036 665.028 C 733.958 664.706 733.842 664.391 733.802 664.062 C 733.349 660.351 735.018 656.096 737.132 653.133 C 746.085 640.584 762.209 635.924 776.608 633.212 z"/>
<path transform="translate(0,0)" fill="rgb(254,254,254)" d="M 780.203 703.527 C 785.473 703.109 790.741 702.653 795.95 703.869 C 802.578 705.417 808.462 708.973 811.814 715.038 C 815.148 721.069 815.224 728.383 813.198 734.851 C 809.352 747.126 799.862 754.099 789.088 759.945 C 788.289 760.256 787.484 760.55 786.675 760.834 C 779.946 763.199 767.504 767.177 760.87 763.983 C 760.69 762.965 774.919 707.69 776.467 705.214 C 777.378 703.758 778.645 703.916 780.203 703.527 z"/>
<path transform="translate(0,0)" fill="rgb(254,254,254)" d="M 793.353 642.527 C 796.545 642.694 799.965 642.743 803.074 643.521 C 808.788 644.951 814.287 648.847 817.261 653.947 C 820.245 659.128 820.924 665.322 819.133 671.027 C 816.227 680.599 808.661 685.731 800.219 689.997 C 793.042 693.033 785.666 695.164 778.085 696.902 C 782.508 678.7 787.807 660.419 793.353 642.527 z"/>
<path transform="translate(0,0)" fill="rgb(97,75,53)" d="M 1079.53 356.8 C 1082.52 357.421 1082.76 357.632 1084.72 359.951 C 1091.62 368.093 1097.64 377.589 1103.92 386.249 L 1139.21 434.394 L 1184.58 496.218 C 1192.64 507.164 1201.38 517.832 1208.84 529.192 C 1210.57 531.831 1212.15 534.272 1211.85 537.5 L 1209.16 538.367 C 1208.2 538.025 1207.83 537.971 1206.96 537.208 C 1201.85 532.723 1188.28 511.324 1183.07 504.365 L 1080 364.097 C 1056.26 371.852 1033.01 382.558 1009.83 391.904 L 907.771 432.32 L 613.57 549.083 C 554.41 572.699 495.423 599.039 435.23 619.821 C 474.565 678.002 515.914 734.914 556.007 792.591 C 573.943 818.444 592.016 844.201 610.226 869.86 C 622.109 886.441 674.92 956.18 678.637 968.665 L 677.024 969.36 C 672.837 968.187 670.047 964.434 667.456 961.154 C 652.454 942.17 639.213 921.128 625.095 901.433 C 588.88 851.072 553.205 800.325 518.074 749.201 L 454.924 659.028 C 444.803 644.446 434.101 630.004 424.904 614.831 C 450.521 610.313 488.005 592.9 513.14 582.766 L 645.527 529.679 L 917.013 422.146 C 971.435 400.994 1025.61 379.21 1079.53 356.8 z"/>
<path transform="translate(0,0)" fill="rgb(97,75,53)" d="M 1278.87 1029.46 C 1295.44 1028.01 1330.55 1026.65 1344.67 1034.38 C 1351.68 1038.22 1356.57 1044.12 1358.5 1051.92 C 1360.91 1061.65 1358.69 1073.14 1353.28 1081.52 C 1346.5 1092.01 1337.1 1095.4 1325.56 1098.01 C 1330.88 1112.72 1344.65 1168 1356.68 1174.06 C 1366.83 1179.17 1370.89 1167.43 1378.98 1165.43 C 1380.25 1167.35 1380.36 1168.54 1379.93 1170.77 C 1379.07 1175.16 1374.88 1179.39 1371.27 1181.73 C 1365.7 1185.34 1359.22 1185.92 1352.89 1184.2 C 1340.77 1180.89 1333.18 1171.35 1327.1 1161.04 C 1316.77 1142.96 1311.96 1118.66 1301.9 1101.95 C 1300.18 1099.1 1298.67 1098.21 1295.49 1097.52 L 1294.07 1098.43 C 1289.95 1107.97 1278.53 1146.82 1280.57 1155.69 C 1281.65 1160.38 1287.39 1162.66 1291.2 1164.75 C 1274.22 1164.49 1257.24 1164.54 1240.26 1164.89 C 1245.71 1161.9 1252 1161.06 1256.15 1156 C 1261.31 1149.72 1289.71 1045.95 1288.39 1037.46 C 1286.76 1034.38 1284.12 1033.52 1281.14 1032.13 C 1279.25 1031.24 1279.64 1031.26 1278.87 1029.46 z"/>
<path transform="translate(0,0)" fill="rgb(254,254,254)" d="M 1312.63 1038.03 C 1315.95 1037.86 1319.43 1037.73 1322.67 1038.62 C 1327.77 1040.01 1332.01 1044.07 1334.32 1048.73 C 1338.21 1056.57 1337.63 1066.76 1334.63 1074.79 C 1331.39 1083.47 1326.54 1088.53 1318.23 1092.34 C 1310.15 1094.06 1303.97 1094.35 1295.84 1092.73 C 1299.21 1079.65 1304.79 1048.05 1312.63 1038.03 z"/>
<path transform="translate(0,0)" fill="rgb(97,75,53)" d="M 976.289 847.131 C 987.82 846.502 998.743 847.136 1008.9 853.271 C 1017.43 858.429 1023.51 866.44 1025.79 876.18 C 1029.19 890.683 1024.25 909.368 1016.22 921.743 C 1007.76 934.783 995.907 941.591 981.058 944.974 C 968.659 946.355 956.483 946.421 945.357 939.79 C 936.906 934.754 931.24 926.673 928.971 917.13 C 925.598 902.946 928.95 886.516 936.373 874.102 C 945.723 858.465 959.201 851.519 976.289 847.131 z"/>
<path transform="translate(0,0)" fill="rgb(254,254,254)" d="M 977.525 854.228 C 984.492 853.657 990.833 853.504 997.419 856.361 C 1003.88 859.164 1008.76 864.543 1011.19 871.134 C 1015.8 883.611 1012.08 900.831 1006.43 912.58 C 1000.3 925.337 991.26 932.969 978.127 937.602 C 970.893 938.905 964.684 939.402 957.77 936.352 C 951.411 933.547 946.981 928.161 944.679 921.683 C 939.829 908.041 943.259 891.026 949.644 878.374 C 955.918 865.939 964.392 858.538 977.525 854.228 z"/>
<path transform="translate(0,0)" fill="rgb(97,75,53)" d="M 1016.95 1028.98 C 1032.91 1029.28 1048.87 1029.43 1064.83 1029.43 C 1061.84 1031.34 1058.13 1033.3 1055.57 1035.74 C 1048.07 1042.88 1050.89 1105.86 1050.9 1119.46 C 1069.51 1092.27 1087.06 1062.75 1100.08 1032.47 C 1108.01 1062.18 1113.03 1091.36 1115.87 1121.96 C 1129.14 1098.37 1147.99 1063.35 1155.86 1037.98 L 1146.09 1030.41 C 1158.33 1030.19 1170.57 1030.24 1182.8 1030.55 C 1171.15 1035.98 1168.14 1041.74 1162.07 1052.7 C 1152.7 1069.71 1144.3 1087.34 1135.39 1104.59 C 1123.61 1127.4 1111.42 1149.88 1100.23 1173 C 1098.87 1163.83 1098.47 1154.37 1097.48 1145.13 C 1095.01 1122.19 1092.44 1099.06 1088.76 1076.28 C 1073.66 1097.06 1060.35 1120.93 1047.42 1143.16 C 1041.74 1152.92 1036.48 1163.3 1029.93 1172.47 C 1028.99 1143.3 1029.61 1113.92 1029.41 1084.72 C 1029.3 1069.16 1029.89 1053.17 1027.51 1037.76 C 1024.14 1034.69 1020.47 1031.88 1016.95 1028.98 z"/>
<path transform="translate(0,0)" fill="rgb(97,75,53)" d="M 833.589 1017.69 C 838.844 1023.07 880.345 1119.01 885.497 1133.05 C 893.666 1100.48 903.617 1068.23 913.074 1036.02 C 897.443 1040.63 883.365 1050 870.525 1053.62 L 870.364 1052.16 C 878.341 1038.75 899.928 1030.18 914.07 1024.97 C 921.131 1022.37 932.693 1017.61 939.897 1020.91 L 939.54 1020.9 L 939.627 1022.39 C 937.314 1022.95 934.746 1024.4 932.865 1025.85 C 916.32 1038.57 890.688 1149.93 886.823 1176.73 L 881.29 1168.24 C 863.373 1134.83 847.847 1100.44 830.725 1066.65 C 826.651 1077.33 803.95 1149.37 805.485 1156.34 C 806.491 1160.89 812.804 1163.59 816.468 1165.72 C 803.504 1165.5 790.58 1165.79 777.62 1166.12 C 783.401 1162.84 788.451 1160.16 791.679 1154.11 C 797.713 1142.8 822.662 1065.6 823.739 1053.93 C 824.104 1049.97 821.903 1044.55 820.795 1040.72 C 805.221 1051.01 791.6 1064.49 777.378 1076.55 C 789.821 1050.96 809.947 1033.02 833.589 1017.69 z"/>
<path transform="translate(0,0)" fill="rgb(97,75,53)" d="M 777.368 1011.67 L 779.103 1012.26 L 779.082 1013.55 C 777.124 1016.04 775.156 1018.54 773.477 1021.23 C 769.672 1027.32 767.262 1034.02 765.964 1041.05 C 763.727 1053.18 764.175 1066.29 763.668 1078.6 C 762.639 1103.59 758.921 1132.53 764.529 1157.06 L 774.131 1166.12 C 756.736 1165.21 739.237 1165.78 721.825 1165.99 C 724.814 1164.3 728.297 1162.58 730.842 1160.26 C 740.32 1151.6 737.224 1130.88 737.171 1118.94 L 697.38 1119.27 C 692.28 1126.03 687.398 1132.97 682.426 1139.82 C 679.266 1144.37 672.487 1151.81 673.715 1157.68 C 674.463 1161.25 678.489 1163.61 681.214 1165.69 C 668.102 1165.52 654.122 1167.65 641.194 1165.97 C 644.254 1161.18 653.025 1160.26 657.147 1155.66 C 657.47 1155.3 657.77 1154.92 658.091 1154.56 C 667.77 1143.64 675.868 1131.26 684.583 1119.55 C 697.75 1101.86 711.206 1084.41 724.212 1066.6 C 734.511 1052.49 744.518 1037.3 757.08 1025.11 C 763.312 1019.06 769.289 1014.91 777.368 1011.67 z"/>
<path transform="translate(0,0)" fill="rgb(254,254,254)" d="M 738.515 1062.83 C 740.497 1064.93 738.082 1102.65 737.945 1109.51 L 705.169 1111.02 C 704.434 1110.38 704.888 1110.87 704.253 1109.26 C 714.825 1093.42 726.538 1077.63 738.515 1062.83 z"/>
<path transform="translate(0,0)" fill="rgb(97,75,53)" d="M 1191.08 636.336 C 1201.57 635.707 1211.97 636.355 1222.43 637.022 C 1211.36 647.461 1207.27 675.875 1203.33 691.063 C 1213.61 681.707 1223.09 671.439 1233.4 662.071 C 1241.52 654.693 1251.04 648.225 1258.47 640.212 C 1258.03 638.937 1257.79 637.799 1257.54 636.478 C 1266.24 635.124 1276.01 636.173 1284.83 636.347 C 1255.76 648.11 1232.7 674.99 1210.87 696.793 C 1218.44 717.947 1230.85 747.037 1248.35 761.433 C 1254.31 763.691 1262.55 761.498 1267.37 764.246 C 1265.81 767.523 1262.51 769.57 1259.3 771.129 C 1252.15 774.6 1242.06 776.448 1234.43 773.512 C 1216.65 766.662 1202.4 731.193 1194.99 713.831 C 1192.41 725.981 1182.46 752.121 1184 762.659 C 1184.77 767.904 1188.89 770.346 1192.88 773.104 C 1177.27 773.02 1161.65 773.117 1146.04 773.392 C 1151.82 769.297 1157.14 766.175 1159.93 759.347 C 1164.18 748.916 1194.25 647.155 1193.61 642.603 C 1193.35 640.775 1191.84 638.085 1191.08 636.336 z"/>
<path transform="translate(0,0)" fill="rgb(97,75,53)" d="M 1245.06 1029.58 L 1259.25 1028.93 C 1259.09 1035.81 1260.45 1050.89 1256.17 1056.05 L 1254.7 1055.48 C 1254.06 1054 1253.69 1052.72 1253.44 1051.12 C 1253.18 1049.44 1253.06 1047.45 1252.54 1045.84 C 1251.87 1043.76 1250.36 1042.46 1248.47 1041.46 C 1242.37 1038.22 1225 1038.42 1218.28 1040.33 C 1211.89 1044.59 1203.81 1081.52 1201.2 1091.08 C 1210.12 1091.03 1219.04 1091.17 1227.9 1090.07 C 1231.07 1087.18 1233.92 1083.85 1236.85 1080.71 C 1233.21 1094.55 1229.9 1108.74 1224.22 1121.89 C 1224.37 1115.96 1227.05 1107.44 1222.84 1102.45 C 1219.09 1098.01 1205.25 1099.7 1199.61 1099.82 C 1194.09 1117.37 1185.71 1137.22 1184.5 1155.53 C 1196.54 1155.29 1208.92 1156.18 1220.17 1151.28 C 1228.55 1146.35 1234.06 1138.31 1239.94 1130.78 C 1237.85 1142.27 1235.3 1153.58 1232.57 1164.93 C 1203.01 1164.96 1173.36 1165.44 1143.82 1164.65 C 1148.29 1162.95 1153.67 1161.61 1157.76 1159.2 C 1160.63 1157.51 1162.22 1155.17 1163.54 1152.18 C 1168.11 1141.78 1170.43 1129.28 1173.55 1118.33 L 1195.59 1039.45 C 1192.69 1035.51 1190.04 1032.74 1186.07 1029.84 L 1245.06 1029.58 z"/>
<path transform="translate(0,0)" fill="rgb(97,75,53)" d="M 978.232 1026.39 C 989.852 1026.85 997.715 1031.27 1007.36 1037.21 C 1006.56 1046.26 1005.55 1055.29 1004.33 1064.28 C 1003.3 1059.54 1002.13 1054.46 999.903 1050.12 C 996.847 1044.16 991.24 1039.14 984.741 1037.36 C 979.176 1035.83 972.685 1036.22 967.769 1039.44 C 963.611 1042.16 960.987 1046.56 959.985 1051.38 C 955.75 1071.73 978.472 1085.69 987.884 1101.03 C 994.534 1111.88 996.63 1123.37 993.507 1135.75 C 990.441 1147.91 983.77 1157.68 972.639 1163.84 C 959.312 1171.23 946.159 1170.68 931.974 1166.4 C 924.572 1163.12 918.423 1159.3 912.359 1153.95 C 915.982 1142.3 919.312 1130.72 925.359 1120.04 C 924.977 1125.13 924.311 1130.52 924.653 1135.61 C 925.12 1142.53 928.334 1149.51 933.783 1153.89 C 939.076 1158.14 945.97 1159.47 952.596 1158.54 C 960.325 1157.45 967.307 1153.34 972.009 1147.11 C 993.077 1118.77 944.095 1096.64 940.066 1069.28 C 938.523 1058.79 942.247 1048.2 948.789 1040.02 C 956.766 1030.03 966.175 1027.5 978.232 1026.39 z"/>
<path transform="translate(0,0)" fill="rgb(97,75,53)" d="M 1051.34 850.971 L 1098.18 851.068 C 1098.01 855.579 1098.02 860.118 1097.18 864.564 L 1095.4 864.252 L 1094.49 863.366 C 1093.53 862.455 1091.37 860.102 1090.25 859.534 C 1085.74 857.26 1073.77 858.725 1068.39 858.82 C 1065.77 869.16 1062.72 879.403 1059.8 889.664 C 1066.74 889.644 1073.48 888.111 1080.18 888.015 C 1082.39 887.983 1082.35 887.909 1084.07 889.493 C 1084.48 894.557 1082.2 899.741 1080.68 904.528 L 1077.67 896.251 L 1060.81 896.64 L 1059.53 896.913 C 1054.7 900.731 1048.38 926.479 1046.27 933.229 C 1048.1 936.256 1050.26 939.128 1052.28 942.033 C 1042.48 941.848 1032.66 942.055 1022.86 942.123 C 1028.99 936.941 1031.61 934.883 1034.43 927.124 C 1039.07 914.311 1053.38 869.429 1053.54 857.949 C 1053.57 855.496 1052.37 853.139 1051.34 850.971 z"/>
<path transform="translate(0,0)" fill="rgb(97,75,53)" d="M 1083.26 286.855 C 1085.01 287.452 1086.27 288.156 1087.86 289.09 C 1089.97 292.127 1090.75 294.428 1090.39 298.178 C 1089.66 306.004 1084.75 312.681 1078.78 317.386 C 1078.4 317.296 1078 317.255 1077.62 317.117 C 1075.33 316.264 1074.07 314.835 1073.03 312.666 C 1070.64 307.729 1072.1 300.898 1074.12 296.117 C 1076.26 291.053 1078.19 288.919 1083.26 286.855 z"/>
<path transform="translate(0,0)" fill="rgb(254,254,254)" d="M 1082.59 292.447 C 1083.99 293.235 1084.06 293.663 1084.88 294.986 C 1084.62 301.391 1082.23 306.542 1079.23 312.117 L 1077.82 311.507 C 1077.26 310.245 1077.12 310.09 1076.82 308.583 C 1075.8 303.391 1079.82 296.516 1082.59 292.447 z"/>
<path transform="translate(0,0)" fill="rgb(97,75,53)" d="M 1281.97 758.457 C 1284.19 760.33 1285.19 762.079 1285.53 765.019 C 1286.35 772.072 1283.69 780.675 1279.03 786.013 C 1270.4 795.887 1257.01 797.3 1244.75 798.01 L 1241.6 796.366 L 1241.05 794.557 C 1249.17 789.153 1261.31 794.407 1272.91 783.428 C 1280.04 776.68 1281.82 767.895 1281.97 758.457 z"/>
<path transform="translate(0,0)" fill="rgb(97,75,53)" d="M 1708.26 1139.96 C 1711.85 1140.14 1715.47 1140.45 1718.89 1141.65 C 1727.19 1144.55 1732.75 1151.59 1736.24 1159.37 C 1734.8 1159.12 1733.44 1158.85 1732.03 1158.47 C 1721.71 1155.62 1713.58 1149.14 1708.26 1139.96 z"/>
<path transform="translate(0,0)" fill="rgb(97,75,53)" d="M 945.916 1434.63 L 947.046 1435.43 C 947.291 1441.13 942.475 1447.13 941.103 1452.75 C 939.467 1459.45 943.76 1468.13 940.076 1473.97 C 939.201 1473.08 939.265 1473.19 938.371 1472.02 C 934.624 1467.13 934.133 1460.39 934.93 1454.47 C 936.006 1446.48 939.5 1439.51 945.916 1434.63 z"/>
<path transform="translate(0,0)" fill="rgb(254,254,254)" d="M 1889.51 1255.94 L 1891.07 1255.75 C 1892.78 1257.51 1887.96 1267.94 1886.93 1270.78 C 1872.16 1311.5 1864.47 1361.24 1876.17 1403.5 C 1883.89 1431.37 1896.47 1449.4 1921.7 1463.56 C 1899.96 1474.32 1876.48 1482.27 1853.95 1491.26 L 1706.91 1548.93 L 1451.25 1650.73 C 1358.7 1686.71 1265.35 1721.18 1173.49 1758.86 C 1153.53 1729.76 1133.45 1702.48 1109.14 1676.79 C 1141.97 1664.53 1177.91 1656.79 1212.44 1651.43 C 1208.25 1651.03 1204.05 1650.76 1199.85 1650.62 C 1111.62 1648.38 997.647 1699.44 934.264 1760.09 C 953.894 1749.51 973.028 1737.94 992.677 1727.33 L 1001.26 1734.93 C 1026.27 1758.71 1045.24 1785.49 1060.7 1816.26 C 1042.56 1824.17 1023.48 1830.74 1005.01 1837.9 C 982.874 1846.48 960.831 1855.72 938.485 1863.71 C 920.706 1870.06 905.049 1868.86 888.175 1860.68 C 864.164 1849.05 848.461 1828.3 839.87 1803.4 C 828.404 1770.17 832.376 1734.48 847.651 1703.15 C 860.246 1677.68 880.203 1656.58 904.935 1642.59 C 921.277 1633.47 940.129 1627.54 957.603 1620.86 L 1030.72 1592.42 L 1268.01 1499.71 C 1398.51 1447.35 1529.35 1395.83 1660.52 1345.15 L 1813.06 1285.32 C 1838.51 1275.46 1863.75 1264.96 1889.51 1255.94 z"/>
<path transform="translate(0,0)" fill="rgb(254,254,254)" d="M 1082.95 124.14 C 1088.25 123.619 1093.53 123.436 1098.79 124.402 C 1106.74 125.86 1113.24 130.193 1118.46 136.257 C 1131.37 151.273 1142.49 168.347 1154.98 183.853 C 1202.25 242.486 1248.93 301.59 1295.02 361.156 L 1611.85 761.693 L 1855.72 1069.38 L 1915.17 1144.52 C 1928.69 1161.54 1942.77 1178.39 1954.97 1196.38 C 1955.22 1201.29 1955.82 1206.63 1953.73 1211.24 C 1950.97 1217.31 1945.15 1221.08 1939.26 1223.69 C 1929.42 1228.05 1918.71 1230.85 1908.65 1234.75 L 1824.25 1268.15 L 1576.62 1364.78 L 1155.39 1530.63 C 1077.23 1561.9 998.812 1592.49 920.133 1622.41 C 916.76 1610.44 911.154 1599.16 905.973 1587.89 C 929.503 1577.26 953.864 1568.26 977.852 1558.71 L 1137.26 1495.91 L 1741.99 1257.01 C 1777.22 1243.39 1812.35 1229.51 1847.38 1215.38 C 1862.78 1209.26 1878.92 1204.11 1894.01 1197.34 C 1896.33 1196.3 1898.55 1195.29 1899.82 1193 C 1899.23 1189.26 1897.75 1186.57 1895.53 1183.53 C 1880.74 1163.26 1863.91 1144.47 1848.53 1124.64 L 1681.8 913.159 C 1545.6 737.809 1408.26 563.352 1269.78 389.799 C 1235.79 346.856 1201.21 304.281 1167.9 260.821 C 1150.53 238.007 1132.85 215.429 1114.86 193.095 C 1106.01 181.942 1097.76 169.994 1087.89 159.732 C 1063.3 166.387 1039.35 178.467 1015.28 187.104 C 934.537 216.8 854.059 247.201 773.851 278.305 C 578.784 352.376 384.193 427.696 190.091 504.26 C 183.026 494.364 175.178 484.226 170.255 473.078 C 191.372 464.212 212.924 456.348 234.261 448.019 C 284.882 428.186 335.656 408.745 386.577 389.698 L 637.764 292.775 L 915.992 186.789 L 1025.29 145.6 C 1044.41 138.426 1063.47 130.205 1082.95 124.14 z"/>
<path transform="translate(0,0)" fill="rgb(254,254,254)" d="M 272.991 719.62 C 279.12 723.771 345.641 829.787 355.438 844.615 L 637.359 1270.48 C 628.514 1280.06 619.473 1289.37 611.616 1299.81 C 575.213 1348.98 559.64 1410.51 568.269 1471.08 C 569.293 1478.67 570.748 1486.24 572.048 1493.79 C 553.25 1463.61 532.778 1434.3 513.62 1404.31 C 452.178 1308.11 391.31 1211.54 331.019 1114.62 C 315.103 1089.09 299.056 1063.64 282.878 1038.28 C 271.034 1019.56 258.79 1001.19 249.303 981.116 C 239.434 960.233 234.149 937.745 230.757 915.003 C 220.801 848.25 232.082 774.845 272.991 719.62 z"/>
<path transform="translate(0,0)" fill="rgb(235,213,158)" d="M 1094.01 1681.97 C 1099.13 1681.53 1106.53 1690.52 1109.95 1694.16 C 1158.55 1746.02 1182.4 1807.11 1222.16 1863.72 C 1234.77 1881.68 1251 1899.2 1267.97 1913.17 C 1228.48 1903.83 1202.52 1892.38 1172.22 1865.27 C 1174.94 1884 1179.47 1901.63 1186.34 1919.26 C 1190.87 1931.61 1197 1943.5 1202.63 1955.39 C 1150.31 1934.15 1115.61 1894.16 1089.45 1845.44 C 1076.79 1821.88 1065.5 1797.79 1050.71 1775.43 C 1037.36 1755.24 1020.84 1738.31 1003.34 1721.8 C 1032.07 1705.23 1063.04 1693.55 1094.01 1681.97 z"/>
<path transform="translate(0,0)" fill="rgb(254,254,254)" d="M 1882.69 1361.47 C 1896.04 1371.36 1908.1 1383.81 1920.51 1394.9 C 1937.23 1409.84 1955.38 1424.43 1970.64 1440.82 C 1974.9 1445.39 1978.89 1450.35 1981.46 1456.09 C 1983.34 1460.29 1984.32 1463.99 1982.46 1468.34 C 1978.47 1477.65 1970.18 1483.2 1961.36 1487.43 C 1938.88 1498.21 1914.78 1506.41 1891.52 1515.39 C 1840.85 1534.97 1789.66 1553.48 1739.24 1573.64 L 1208.85 1784.25 C 1203.23 1786.14 1197.76 1788.46 1192.27 1790.68 C 1187.57 1783.67 1183.53 1776.5 1179.89 1768.89 C 1194.56 1762.03 1210.52 1756.84 1225.63 1750.94 L 1331.36 1710.16 C 1463.73 1659.02 1595.72 1606.92 1727.33 1553.87 L 1834.72 1510.93 C 1869.3 1497.39 1904.54 1484.29 1938.44 1469.13 C 1941.72 1467.67 1947.7 1465.44 1949.62 1462.36 C 1948.13 1453.46 1921.06 1452.83 1911.97 1444.71 C 1889.89 1424.98 1883.55 1389.47 1882.69 1361.47 z"/>
<path transform="translate(0,0)" fill="rgb(254,254,254)" d="M 770.457 1477.7 C 779.735 1488.27 787.313 1502.97 795.025 1514.84 C 814.038 1544.11 833.535 1573.26 851.306 1603.3 C 835.468 1614.33 821.032 1628.3 809.18 1643.51 C 772.082 1691.1 764.339 1741.43 771.647 1799.95 L 776.431 1818.36 C 767.715 1804.5 759.416 1790.36 750.721 1776.48 C 742.72 1763.71 733.73 1750.88 727.107 1737.36 C 714.368 1711.35 709.548 1678.22 708.626 1649.5 C 706.6 1586.45 726.892 1524 770.457 1477.7 z"/>
<path transform="translate(0,0)" fill="rgb(254,254,254)" d="M 186.688 519.906 C 197.613 530.934 213.38 560.259 222.581 574.509 L 315.148 718.01 C 387.857 829.519 461.133 940.659 534.972 1051.42 C 579.748 1119.23 623.527 1187.86 669.086 1255.13 C 662.747 1258.81 656.598 1262.87 650.401 1266.8 C 640.167 1256.93 623.873 1229.27 615.189 1216.09 C 591.88 1180.19 568.337 1144.44 544.562 1108.85 L 167.881 530.668 C 174.467 527.337 180.58 524.092 186.688 519.906 z"/>
<path transform="translate(0,0)" fill="rgb(254,254,254)" d="M 705.83 1376.63 C 712.588 1381.61 757.314 1455.9 765.406 1469.04 C 755.828 1479.05 747.092 1491.13 739.559 1502.69 C 700.814 1562.16 691.473 1632.03 706.191 1700.76 L 705.657 1702.06 C 704.888 1701.64 704.474 1701.47 703.819 1700.75 C 696.781 1693 691.342 1680.65 685.569 1671.71 C 676.914 1658.31 666.552 1644.9 659.428 1630.69 C 648.464 1608.82 642.463 1565.35 642.433 1540.75 C 642.359 1481.41 663.404 1419.2 705.83 1376.63 z"/>
<path transform="translate(0,0)" fill="rgb(254,254,254)" d="M 642.82 1279.93 C 648.95 1286.76 654.224 1295.5 659.424 1303.09 C 673.928 1324.46 687.939 1346.16 701.445 1368.17 C 692.632 1377.88 684.018 1387.65 676.454 1398.4 C 647.297 1439.83 631.706 1493.89 632.999 1544.48 C 633.436 1561.59 636.134 1578.21 639.067 1595.02 L 637.678 1594.7 C 630.407 1585.22 624.201 1574.7 617.582 1564.76 C 609.312 1552.33 600.636 1539.98 593.833 1526.68 C 578.548 1496.77 573.339 1459.96 575.386 1426.73 C 578.739 1372.29 601.437 1316.43 642.82 1279.93 z"/>
<path transform="translate(0,0)" fill="rgb(254,254,254)" d="M 212.2 623.68 C 217.23 626.508 261.159 699.759 267.995 711.026 C 229.809 766.857 211.163 831.146 219.197 898.808 C 220.258 907.739 228.74 947.886 228.477 950.775 L 226.179 947.958 C 213.724 928.999 201.392 909.959 189.185 890.839 C 180.692 877.569 170.434 863.696 164.592 849.044 C 157.998 832.504 154.771 814.085 153.652 796.372 C 149.917 737.229 172.894 668.393 212.2 623.68 z"/>
<path transform="translate(0,0)" fill="rgb(254,254,254)" d="M 159.476 539.832 C 164.413 545.267 168.526 552.981 172.576 559.196 C 184.496 577.486 195.622 596.262 207.238 614.744 C 206.401 615.7 205.593 616.681 204.815 617.686 C 164.103 669.307 142.011 731.649 145.07 797.7 C 145.513 807.257 147.196 816.72 148.309 826.212 L 147.121 825.948 C 135.267 807.16 102.797 762.362 96.7561 745 C 93.3062 735.085 92.6019 724.199 92.1805 713.79 C 89.5357 648.459 115.74 587.311 159.476 539.832 z"/>
<path transform="translate(0,0)" fill="rgb(254,254,254)" d="M 892.519 1592.76 L 893.734 1592.87 C 898.973 1597.22 906.689 1618.77 909.925 1626.01 C 885.399 1638.54 864.155 1655.17 848.474 1678.1 C 826.019 1710.94 815.348 1749.52 822.939 1789.01 C 828.587 1818.4 844.736 1847.68 869.995 1864.56 C 890.605 1878.32 911.909 1881.78 935.974 1877.15 L 935.643 1903.6 L 917.173 1905.84 C 903.223 1906.42 888.988 1904.32 875.604 1900.45 C 845.182 1891.64 813.503 1870.07 798.288 1841.69 C 777.979 1803.82 775.764 1749.67 788.415 1709.09 C 805.498 1654.29 842.652 1618.66 892.519 1592.76 z"/>
<path transform="translate(0,0)" fill="rgb(254,254,254)" d="M 676.229 1265.05 C 677.713 1265.79 679.075 1267.74 679.978 1269.11 L 887.142 1581.48 C 879.889 1585 872.856 1588.68 865.906 1592.77 L 861.892 1594.82 C 859.09 1594.06 858.253 1591.99 856.66 1589.62 C 850.962 1581.12 845.99 1572.08 840.474 1563.46 L 803.718 1506.25 C 755.376 1429.13 706.088 1352.6 655.864 1276.69 C 662.563 1272.67 669.44 1268.91 676.229 1265.05 z"/>
<path transform="translate(0,0)" fill="rgb(254,254,254)" d="M 128.521 490.894 C 137.442 500.671 147.5 520.405 154.591 532.222 C 105.319 587.072 81.8289 637.873 82.8967 712.58 L 82.5413 713.318 L 81.1899 712.416 C 61.5443 671 52.9489 625.397 63.9714 580.267 C 72.7678 543.087 95.9915 510.932 128.521 490.894 z"/>
<path transform="translate(0,0)" fill="rgb(254,254,254)" d="M 1065.25 1826.99 C 1069.6 1829.14 1075.18 1843.48 1077.6 1848.29 C 1037.56 1861.76 997.989 1878.38 958.762 1894.09 L 949.135 1897.36 C 949.04 1889.31 948.489 1881.66 947.121 1873.72 C 960.521 1867.14 975.41 1862.36 989.345 1856.94 L 1065.25 1826.99 z"/>
<path transform="translate(0,0)" fill="rgb(254,254,254)" d="M 154.349 478.902 C 154.663 478.872 154.977 478.787 155.291 478.813 C 155.328 478.816 157.543 479.291 157.635 479.357 C 162.011 482.475 175.038 504.393 179.242 510.105 C 174.167 513.289 168.753 516.03 163.492 518.9 L 162.125 519.594 C 156.909 516.021 143.324 491.716 139.775 484.99 C 144.539 482.779 149.49 480.898 154.349 478.902 z"/>
</svg>